<svg width="16" height="16" viewBox="0 0 16 16" fill="none" xmlns="http://www.w3.org/2000/svg">
<path d="M16.0073 10.1855L16.0144 10.1949L15.994 0.920563C15.994 0.477331 15.6393 0.118686 15.202 0.118686C14.9592 0.118686 14.7525 0.233723 14.6062 0.406279L14.5992 0.40391L11.7885 3.90274V3.91526C10.7724 3.03522 9.45911 2.49691 8.01619 2.49691C6.5873 2.49691 5.28567 3.02642 4.27162 3.89191L4.27764 3.87567L1.4713 0.415752L1.46261 0.420489C1.31699 0.240151 1.10623 0.118347 0.860396 0.118347C0.425852 0.118347 0.0741409 0.474625 0.0741409 0.914811L0.0173594 10.3052C0.0173594 10.3069 0.0163574 10.31 0.0163574 10.311C0.0163574 10.314 0.0163574 10.3171 0.0163574 10.3181V10.3797H0.0203655C0.0554364 13.5036 2.5261 16.0307 5.60064 16.1106V16.1183H10.2841C13.4502 16.1183 16.0164 13.5178 16.0164 10.311C16.016 10.269 16.0073 10.2284 16.0073 10.1855ZM5.02849 8.86727C4.55219 8.86727 4.16608 8.47649 4.16608 7.99367C4.16608 7.51085 4.55219 7.11972 5.02849 7.11972C5.50512 7.11972 5.89123 7.51051 5.89123 7.99367C5.89123 8.47649 5.50512 8.86727 5.02849 8.86727ZM8.01619 11.6075L6.29137 9.90735H9.74101L8.01619 11.6075ZM11.0039 8.86727C10.5273 8.86727 10.1412 8.47649 10.1412 7.99367C10.1412 7.51085 10.5273 7.11972 11.0039 7.11972C11.4802 7.11972 11.8663 7.51051 11.8663 7.99367C11.8663 8.47649 11.4802 8.86727 11.0039 8.86727Z" fill="#FFCC00"/>
</svg>
